<?xml version="1.0" encoding="UTF-8"?>
<!DOCTYPE svg PUBLIC "-//W3C//DTD SVG 1.1//EN" "http://www.w3.org/Graphics/SVG/1.1/DTD/svg11.dtd">
<!-- Creator: CorelDRAW 2020 (64 Bit) -->
<svg xmlns="http://www.w3.org/2000/svg" xml:space="preserve" width="999.999mm" height="724.025mm" version="1.1" style="shape-rendering:geometricPrecision; text-rendering:geometricPrecision; image-rendering:optimizeQuality; fill-rule:evenodd; clip-rule:evenodd"
viewBox="0 0 112349.39 81343.9"
 xmlns:xlink="http://www.w3.org/1999/xlink"
 xmlns:xodm="http://www.corel.com/coreldraw/odm/2003">
 <defs>
  <style type="text/css">
   <![CDATA[
    .fil2 {fill:#373435;fill-rule:nonzero}
    .fil1 {fill:url(#id0)}
    .fil0 {fill:url(#id1)}
    .fil3 {fill:url(#id2)}
    .fil4 {fill:url(#id3)}
   ]]>
  </style>
  <linearGradient id="id0" gradientUnits="userSpaceOnUse" x1="-0" y1="23945.91" x2="64480.88" y2="23945.91">
   <stop offset="0" style="stop-opacity:1; stop-color:#00A859"/>
   <stop offset="1" style="stop-opacity:1; stop-color:#066C47"/>
  </linearGradient>
  <linearGradient id="id1" gradientUnits="userSpaceOnUse" xlink:href="#id0" x1="106386.14" y1="-3190.63" x2="45516.5" y2="65954.46">
  </linearGradient>
  <linearGradient id="id2" gradientUnits="userSpaceOnUse" x1="61663.74" y1="-82.13" x2="23620.42" y2="40374.55">
   <stop offset="0" style="stop-opacity:1; stop-color:#95C949"/>
   <stop offset="1" style="stop-opacity:1; stop-color:#00A859"/>
  </linearGradient>
  <linearGradient id="id3" gradientUnits="userSpaceOnUse" xlink:href="#id2" x1="49524.56" y1="40671.52" x2="77785.04" y2="40671.52">
  </linearGradient>
 </defs>
 <g id="Camada_x0020_1">
  <metadata id="CorelCorpID_0Corel-Layer"/>
  <path class="fil0" d="M112349.39 0.44l-35879.77 0c0,0 1886.45,2165.27 -800.57,6019 -1799.57,2580.25 -24068.7,35156.54 -24068.7,35156.54 -6830.39,10017.56 -6753.88,23213.2 190.63,33151.65l4901.15 7016.27 55657.25 -81343.47z"/>
  <path class="fil1" d="M-0 0.44l33357.01 47891.81c-28.96,-44.52 -4937.9,-7646.52 6505.75,-18156.44 7319.73,-6723.61 24664.8,-22644.33 24664.8,-22644.33 2747.98,-2511.52 973.06,-7091.04 -2752.73,-7091.04l-61774.83 0z"/>
  <path class="fil2" d="M33357.01 47891.82c0,0 -4692.36,-7971.17 6505.32,-18156.44 8793.35,-7997.11 24665.23,-22644.33 24665.23,-22644.33 2749.28,-2511.52 971.33,-7091.05 -2751,-7091.05l-19120.43 0c1506.92,1601.15 2722.05,3644.52 2738.9,5991.34 18.59,2295.38 -1120.89,4012.38 -1586.02,4718.29 -6282.7,9532.98 -13254.89,20112.93 -12940.62,28928.75 67.01,1888.18 507.49,4762.82 2488.62,8253.44z"/>
  <path class="fil2" d="M60080.31 45290.39c13540.19,-20820.56 17439.31,-30990.71 17920.01,-40933.48 170.75,-3534.71 -1529.83,-4356.9 -1529.83,-4356.9 0,0 1794.81,2293.66 -596.1,5778.23 -7304.61,10645.66 -22238.87,32413.32 -23252.99,33906.4 -9913.81,13771.87 -6435.29,26651.96 -1169.3,34147.18 2566.42,3653.6 5240.91,7511.66 5240.91,7511.66 0,0 -9520.02,-16207.31 3387.3,-36053.08z"/>
  <path class="fil3" d="M42654.84 0.44c1508.21,1601.15 2723.77,3644.52 2741.92,5991.77 15.13,2294.95 -1123.92,4011.95 -1589.05,4717.86 -6281.39,9532.97 -13253.58,20112.91 -12939.32,28927.44 67.01,1884.73 504.9,4750.28 2473.49,8228.81 -279.24,-504.9 -4305.03,-8283.7 6520.88,-18130.51 8791.2,-7997.1 24664.8,-22644.33 24664.8,-22644.33 2747.98,-2511.52 973.06,-7091.04 -2752.73,-7091.04l-19119.99 0zm-9297.82 47891.81c-4.33,-9.08 -10.38,-16.85 -15.13,-25.93 9.08,16.85 15.13,25.93 15.13,25.93z"/>
  <path class="fil4" d="M75874.81 5778.66c-7304.6,10645.65 -22238.43,32413.32 -23254.29,33905.97 -9912.08,13772.3 -6433.99,26650.66 -1169.74,34147.18 2566.86,3654.03 5241.35,7512.09 5241.35,7512.09 0,0 -9520.45,-16207.32 3388.61,-36053.52 13540.17,-20820.13 17438.01,-30990.27 17918.27,-40933.05 172.48,-3535.15 -1529.39,-4356.9 -1529.39,-4356.9 0,0 1796.54,2291.92 -594.81,5778.23z"/>
 </g>
</svg>
